HIERARCHY
ROOT Hips
{
	OFFSET	0.00	0.00	0.00
	CHANNELS 6 Xposition Yposition Zposition Zrotation Xrotation Yrotation
	JOINT LeftUpLeg
	{
		OFFSET	 0.126116	-0.065224	 0.014019
		CHANNELS 3 Zrotation Xrotation Yrotation
		JOINT LeftLeg
		{
			OFFSET	 0.000000	 0.569914	 0.000000
			CHANNELS 3 Zrotation Xrotation Yrotation
			JOINT LeftFoot
			{
				OFFSET	 0.000000	 0.544423	 0.000000
				CHANNELS 3 Zrotation Xrotation Yrotation
				JOINT LeftToeBase
				{
					OFFSET	 0.000000	 0.207117	 0.000000
					CHANNELS 3 Zrotation Xrotation Yrotation
					End Site
					{
						OFFSET	 0.000000	 0.207117	 0.000000
					}
				}
			}
		}
	}
	JOINT RightUpLeg
	{
		OFFSET	-0.124023	-0.065224	 0.008373
		CHANNELS 3 Zrotation Xrotation Yrotation
		JOINT RightLeg
		{
			OFFSET	 0.000000	 0.570047	 0.000000
			CHANNELS 3 Zrotation Xrotation Yrotation
			JOINT RightFoot
			{
				OFFSET	 0.000000	 0.544354	 0.000000
				CHANNELS 3 Zrotation Xrotation Yrotation
				JOINT RightToeBase
				{
					OFFSET	 0.000000	 0.207540	 0.000000
					CHANNELS 3 Zrotation Xrotation Yrotation
					End Site
					{
						OFFSET	 0.000000	 0.207540	 0.000000
					}
				}
			}
		}
	}
	JOINT Spine
	{
		OFFSET	 0.000184	 0.117403	 0.007763
		CHANNELS 3 Zrotation Xrotation Yrotation
		JOINT Spine1
		{
			OFFSET	 0.000000	 0.137269	 0.000000
			CHANNELS 3 Zrotation Xrotation Yrotation
			JOINT Spine2
			{
				OFFSET	 0.000000	 0.156879	 0.000000
				CHANNELS 3 Zrotation Xrotation Yrotation
				JOINT LeftShoulder
				{
					OFFSET	 0.080501	 0.160143	 0.002496
					CHANNELS 3 Zrotation Xrotation Yrotation
					JOINT LeftArm
					{
						OFFSET	 0.000000	 0.164363	 0.000000
						CHANNELS 3 Zrotation Xrotation Yrotation
						JOINT LeftForeArm
						{
							OFFSET	 0.000000	 0.364576	 0.000000
							CHANNELS 3 Zrotation Xrotation Yrotation
							JOINT LeftHand
							{
								OFFSET	 0.000000	 0.360812	 0.000000
								CHANNELS 3 Zrotation Xrotation Yrotation
								JOINT LeftHandIndex1
								{
									OFFSET	 0.000000	 0.086006	 0.000000
									CHANNELS 3 Zrotation Xrotation Yrotation
									JOINT LeftHandIndex2
									{
										OFFSET	 0.000000	 0.047237	 0.000000
										CHANNELS 3 Zrotation Xrotation Yrotation
										JOINT LeftHandIndex3
										{
											OFFSET	-0.004284	 0.038165	 0.000551
											CHANNELS 3 Zrotation Xrotation Yrotation
											End Site
											{
												OFFSET	-0.004284	 0.038165	 0.000551
											}
										}
									}
								}
							}
						}
					}
				}
				JOINT Neck
				{
					OFFSET	 0.000000	 0.176489	 0.000000
					CHANNELS 3 Zrotation Xrotation Yrotation
					JOINT Head
					{
						OFFSET	 0.000000	 0.077941	 0.001747
						CHANNELS 3 Zrotation Xrotation Yrotation
						End Site
						{
							OFFSET	 0.000000	 0.077941	 0.001747
						}
					}
				}
				JOINT RightShoulder
				{
					OFFSET	-0.080363	 0.159706	-0.000306
					CHANNELS 3 Zrotation Xrotation Yrotation
					JOINT RightArm
					{
						OFFSET	 0.000000	 0.164196	 0.000000
						CHANNELS 3 Zrotation Xrotation Yrotation
						JOINT RightForeArm
						{
							OFFSET	 0.000000	 0.365611	 0.000000
							CHANNELS 3 Zrotation Xrotation Yrotation
							JOINT RightHand
							{
								OFFSET	 0.000000	 0.360648	 0.000000
								CHANNELS 3 Zrotation Xrotation Yrotation
								JOINT RightHandIndex1
								{
									OFFSET	 0.000000	 0.069977	 0.000000
									CHANNELS 3 Zrotation Xrotation Yrotation
									JOINT RightHandIndex2
									{
										OFFSET	 0.000000	 0.052305	 0.000000
										CHANNELS 3 Zrotation Xrotation Yrotation
										JOINT RightHandIndex3
										{
											OFFSET	 0.009002	 0.042196	 0.000782
											CHANNELS 3 Zrotation Xrotation Yrotation
											End Site
											{
												OFFSET	 0.009002	 0.042196	 0.000782
											}
										}
									}
								}
							}
						}
					}
				}
			}
		}
	}
}
MOTION
Frames:    11
Frame Time: 0.03333334
-0.087542	 1.257229	-0.069610	 12.556130	-5.595910	-160.914400	-160.403900	 28.564050	-11.903620	 7.111096	-24.937880	 10.468920	 9.426046	 54.794850	-12.720110	 1.455444	 30.558900	-2.822337	 168.637100	 11.846720	 57.309920	-3.487197	-38.758580	 5.704231	 9.417165	 69.767150	-2.660026	-3.478045	 50.091760	 4.034608	-6.934044	 1.365794	 59.090490	-10.409750	 8.407277	 11.431550	 7.602623	-6.489981	-16.604450	-101.578800	 3.510881	 93.395870	 73.668210	 24.084510	-19.567740	 10.752390	-0.237491	 29.173880	 39.866280	 44.713730	 13.632500	 3.758503	 55.318430	-2.136596	-8.822677	 61.650180	 9.144905	 6.611795	 34.375680	 0.048889	 3.470198	-11.926540	-3.622396	 6.096471	-8.913150	-14.218350	 100.340900	 27.588760	-97.382550	-12.239580	 16.353580	-10.121720	-35.839140	-1.079168	-29.578060	 6.732661	 21.904260	 9.899876	-4.728563	-1.940681	-0.644228	 12.227200	 17.674280	-3.937114	-8.463903	 9.666440	-0.308934
-0.092993	 1.235279	-0.065372	 12.277410	-7.168683	-160.031500	-161.829200	 33.496620	-11.610400	 9.385146	-31.488250	 12.782160	 16.395760	 60.834330	-18.244280	 1.188165	 27.041980	-2.670095	 169.576300	 12.299150	 55.750670	-3.254558	-36.845430	 6.447664	 12.147880	 78.287090	-4.953785	-2.467350	 41.718980	 3.339517	-7.392171	 0.781843	 66.644730	-10.630340	 8.302986	 11.798670	 7.663640	-6.789505	-16.934760	-102.451700	 2.894831	 93.204250	 64.561260	 30.758680	-12.555950	 12.783820	-0.237576	 38.772500	 15.445240	 37.178130	 51.737950	 3.844194	 55.156220	-2.198929	-8.829639	 61.678740	 9.154244	 6.609957	 34.336620	 0.049101	 3.774881	-12.453740	-3.942636	 5.951766	-9.939364	-15.533340	 102.184900	 28.573400	-97.878700	 1.136036	 19.969220	-24.185230	-70.782450	-1.808964	-40.243190	 31.556190	 21.845980	 5.304134	-4.887048	 13.090830	-0.625340	 14.057670	 36.334850	-8.802800	-8.485228	 29.573580	-1.611314
-0.097889	 1.235604	-0.062235	 11.103020	-7.672379	-160.361400	-163.340900	 33.335110	-12.525380	 9.252007	-31.127980	 12.767560	 18.395250	 61.616520	-19.173640	 1.141324	 26.408480	-2.651499	 169.445300	 11.094760	 57.154390	-2.918520	-33.902410	 9.030787	 20.368420	 80.101850	-15.364580	-2.014728	 37.091850	 3.070009	-7.384077	 0.811897	 66.768380	-10.507000	 7.904231	 11.703210	 7.709638	-6.656837	-16.572460	-103.450700	 2.663232	 93.079940	 57.834710	 37.257210	-11.973720	 13.922830	-0.241798	 43.742120	 2.167915	 30.509430	 67.171240	 3.885360	 55.111210	-2.229370	-8.797305	 61.545760	 9.110871	 6.614275	 34.428570	 0.048633	 4.009120	-12.003090	-3.883488	 5.002293	-9.687171	-15.027100	 103.286900	 27.491790	-97.898510	 5.098878	 22.389060	-27.150910	-62.214480	-1.634326	-44.892560	 22.235960	 18.188110	-7.956549	-4.897287	 13.074810	-0.626083	 14.080700	 36.476140	-8.846805	-8.484459	 29.637700	-1.615866
-0.103110	 1.237411	-0.059503	 9.368123	-7.452801	-163.018000	-163.779800	 31.362670	-15.875160	 8.987977	-30.405050	 12.335040	 19.065640	 62.762930	-19.214610	 1.131556	 26.275530	-2.647681	 168.432200	 10.274310	 55.601050	-2.760523	-32.443290	 10.548920	 24.602150	 79.740540	-20.890510	-1.831887	 35.049410	 2.970304	-6.823712	 1.497694	 62.693040	-10.563040	 7.627373	 11.640200	 7.916718	-6.521501	-15.827500	-104.069800	 2.499049	 92.932810	 53.366900	 43.116440	-14.509390	 14.291360	-0.244645	 45.220150	-7.262751	 26.411420	 70.943130	 3.892211	 55.151470	-2.235621	-8.760609	 61.393030	 9.061483	 6.620505	 34.560940	 0.047938	 4.118876	-11.150440	-3.607705	 3.828516	-9.262716	-13.585220	 104.846900	 26.184250	-97.948620	 5.880915	 27.241020	-25.794110	-43.843090	-1.189842	-45.791840	 6.119492	 14.276250	-17.590440	-4.856215	 12.841660	-0.609007	 14.069620	 36.408270	-8.825656	-8.485648	 29.538700	-1.608832
-0.097685	 1.239129	-0.053850	 6.827528	-6.031024	-168.115800	-163.191900	 27.228310	-21.462670	 8.459422	-28.923480	 11.480230	 17.524220	 63.747610	-17.928730	 1.148938	 26.511940	-2.654485	 166.955900	 9.651560	 51.212110	-2.750862	-32.352610	 10.960120	 23.071740	 78.336080	-20.289310	-1.788969	 34.555080	 2.947739	-5.739166	 3.075203	 52.841810	-9.574090	 6.180851	 10.173880	 7.897262	-5.496011	-14.647790	-104.469100	 2.494977	 92.782710	 46.942320	 48.707460	-16.121730	 13.918360	-0.250314	 42.931580	-11.916670	 25.990430	 65.000590	 3.775749	 54.489810	-2.143068	-8.554828	 60.499520	 8.781333	 6.599340	 34.110140	 0.050238	 4.119314	-9.962846	-3.103786	 2.507067	-8.607888	-11.097450	 106.989300	 24.407190	-98.000110	-2.602174	 32.409640	-16.663770	-14.354210	-0.206132	-42.949120	-11.893250	 14.179790	-24.235460	-4.631855	 11.955260	-0.499167	 13.894810	 35.302660	-8.485996	-8.499812	 28.235700	-1.517130
-0.086920	 1.239166	-0.049500	 4.938937	-5.072233	-172.308800	-162.647800	 24.196620	-26.032700	 8.000477	-27.600040	 10.992290	 15.972630	 64.358630	-16.951550	 1.149068	 26.513740	-2.654535	 166.840300	 8.968440	 47.734630	-2.612285	-31.029870	 11.063960	 23.519880	 78.212460	-20.955600	-1.600244	 32.313270	 2.852479	-4.467104	 4.132126	 41.960870	-8.889894	 5.068379	 9.293192	 7.773313	-4.545034	-13.536700	-104.997300	 2.900970	 92.758830	 31.026270	 52.662130	-2.801244	 12.933490	-0.253315	 38.009460	-7.598231	 23.717250	 65.410320	 3.387982	 51.201500	-1.831260	-7.919902	 57.262130	 7.874645	 6.480343	 31.523880	 0.059442	 4.103203	-9.300135	-2.634446	 1.818628	-7.837999	-8.654237	 108.768000	 22.743350	-97.929470	 7.520175	 28.596040	-20.252860	-30.885120	-0.844361	-38.286130	 6.441598	 20.093400	-17.478430	-3.966784	 9.667458	-0.129066	 13.356550	 31.395990	-7.352605	-8.530991	 23.453030	-1.191875
-0.068377	 1.239270	-0.042254	 2.959717	-3.896216	-176.837000	-162.135900	 20.577380	-30.741950	 7.224751	-25.285170	 10.326640	 13.298270	 64.212720	-15.260760	 1.149209	 26.515710	-2.654590	 167.087000	 8.207562	 43.981220	-2.433829	-29.270580	 11.192120	 23.448860	 78.138240	-21.494140	-1.404908	 29.875490	 2.761082	-2.794794	 4.975868	 27.798240	-7.372533	 3.891408	 7.706824	 7.280781	-3.392534	-12.331570	-105.571700	 3.342623	 92.737110	 16.960560	 55.234260	 10.199870	 11.235370	-0.253948	 29.932090	-5.790464	 21.467540	 63.853080	 3.024906	 47.624760	-1.552544	-7.384559	 53.737040	 7.038621	 6.354979	 28.711820	 0.062233	 4.079492	-8.579770	-2.124905	 1.072646	-7.023820	-5.997556	 110.681300	 20.937490	-97.790890	 14.672900	 26.749440	-22.970720	-43.356600	-1.300649	-30.519980	 26.366030	 23.881280	-12.774270	-3.231202	 7.184950	 0.301213	 12.892710	 27.139190	-6.215148	-8.531388	 18.252250	-0.852806
-0.049674	 1.240185	-0.033557	 1.903258	-3.193403	-179.656700	-161.566600	 17.934970	-33.636830	 6.331818	-22.501910	 8.296428	 8.058753	 63.275690	-10.536690	 1.149727	 26.522770	-2.654794	 167.775300	 8.038048	 41.289560	-2.299884	-27.908840	 10.925130	 22.350460	 77.492350	-20.028660	-1.351832	 29.192580	 2.737580	-0.991271	 5.324358	 14.173930	-6.351063	 3.469761	 6.738421	 6.975291	-3.060348	-11.597920	-106.374000	 3.749520	 92.730600	 23.989680	 53.530120	 5.039638	 9.168979	-0.254613	 20.100250	-3.545083	 22.512920	 55.525550	 2.140167	 37.547040	-0.950914	-6.412584	 43.357190	 5.144364	 6.000733	 20.402210	 0.031875	 4.014893	-8.242791	-1.731985	 0.579084	-6.749352	-4.175217	 112.603300	 19.296570	-97.652310	 15.185610	 30.851450	-22.876550	-37.383050	-1.202488	-20.552660	 25.343690	 25.974910	-9.666178	-2.847956	 5.870436	 0.553212	 12.690880	 24.872770	-5.642641	-8.519848	 15.693000	-0.689481
-0.029603	 1.240456	-0.022619	 1.287112	-2.598811	 178.154000	-160.804500	 15.560290	-35.865210	 5.384532	-19.416360	 5.675199	 2.015086	 61.674340	-4.820588	 1.150361	 26.531420	-2.655046	 168.621100	 8.317949	 39.029970	-2.237355	-27.261020	 10.492020	 21.330310	 76.940310	-18.347080	-1.345009	 29.104240	 2.734599	 0.870997	 5.204210	 1.470904	-5.858185	 3.432714	 6.201793	 6.888547	-3.097787	-11.033140	-107.240100	 4.138517	 92.733500	 40.811600	 44.659060	-6.331174	 6.646077	-0.242354	 9.245859	-3.974935	 27.412640	 43.642770	 1.335411	 25.347140	-0.528147	-5.929587	 30.719090	 3.436077	 5.583579	 10.330950	-0.073040	 3.937959	-8.039030	-1.383775	 0.179865	-6.660151	-2.656906	 114.491000	 17.738340	-97.482090	 3.780904	 40.510010	-15.367120	-7.041935	-0.199608	-9.268585	 6.592703	 26.176200	-6.410380	-2.588705	 4.964348	 0.739171	 12.567720	 23.303090	-5.257396	-8.508543	 14.049600	-0.585353
-0.017112	 1.240388	-0.013383	 0.837545	-2.103517	 176.367200	-160.580000	 13.748550	-37.643170	 4.692602	-17.081770	 3.376323	-2.438877	 60.405110	-0.262397	 1.150897	 26.538730	-2.655260	 168.865900	 8.939573	 37.191410	-2.280834	-27.712320	 10.074740	 21.396610	 76.795040	-17.601300	-1.339374	 29.031170	 2.732144	 2.289324	 4.725143	-8.393658	-5.779745	 3.514121	 5.834232	 6.960034	-3.197271	-10.570340	-107.960700	 4.460498	 92.740200	 46.863390	 38.489860	-8.781318	 4.495917	-0.230131	-0.288471	-0.699577	 28.436080	 33.456270	 0.797700	 15.451870	-0.339794	-5.868059	 20.474570	 2.264040	 5.237008	 2.142837	-0.210674	 3.872152	-7.872613	-1.095403	-0.146804	-6.591391	-1.408669	 116.040900	 16.453830	-97.302220	 6.034249	 42.057140	-14.730830	-4.900104	-0.190830	 0.264054	 3.218684	 30.300300	-4.918661	-2.375623	 4.227652	 0.893657	 12.476950	 22.025370	-4.949866	-8.497141	 12.712280	-0.500897
-0.010118	 1.240966	-0.008160	 0.739182	-1.744837	 175.332400	-160.550400	 12.387020	-38.498330	 4.152078	-15.214290	 2.323122	-4.349040	 59.198730	 1.550583	 1.151749	 26.550300	-2.655597	 169.151700	 9.154664	 36.331950	-2.297703	-27.886380	 9.626267	 18.535700	 76.899390	-15.298230	-1.335767	 28.984220	 2.730577	 3.222531	 4.357059	-16.258200	-5.164190	 3.374133	 5.346202	 6.779066	-3.127067	-10.383320	-108.597300	 4.683478	 92.739450	 47.937110	 35.976490	-9.647753	 6.423108	-0.229227	-9.536120	 1.927670	 30.409580	 29.430560	 0.736599	 13.933650	-0.334215	-5.878298	 18.937000	 2.096044	 5.181478	 0.867838	-0.236481	 3.775060	-7.840930	-0.896495	-0.316015	-6.498070	-0.877843	 116.926500	 15.595440	-97.173810	 6.638726	 41.628870	-14.354720	-6.836562	-0.190314	 9.513000	 1.301569	 29.502150	-4.891039	-2.379683	 4.269808	 0.898140	 12.481950	 22.098890	-4.967429	-8.497772	 12.781000	-0.505234
